<mxfile host="app.diagrams.net" agent="Mozilla/5.0 (Windows NT 10.0; Win64; x64; rv:131.0) Gecko/20100101 Firefox/131.0" version="24.8.1">
  <diagram name="Page-1" id="py-4Q6uhciEBke3oWkAe">
    <mxGraphModel dx="2049" dy="1049" grid="1" gridSize="10" guides="1" tooltips="1" connect="1" arrows="1" fold="1" page="1" pageScale="1" pageWidth="850" pageHeight="1100" math="0" shadow="0">
      <root>
        <mxCell id="0" />
        <mxCell id="1" parent="0" />
        <mxCell id="U2Ccap0tlJLcTteQnbHO-9" style="edgeStyle=orthogonalEdgeStyle;rounded=0;orthogonalLoop=1;jettySize=auto;html=1;entryX=0;entryY=0.5;entryDx=0;entryDy=0;" parent="1" edge="1">
          <mxGeometry relative="1" as="geometry">
            <mxPoint x="247" y="650.56" as="targetPoint" />
            <mxPoint x="162" y="330.00053188733074" as="sourcePoint" />
            <Array as="points">
              <mxPoint x="162" y="631" />
              <mxPoint x="247" y="631" />
            </Array>
          </mxGeometry>
        </mxCell>
        <mxCell id="U2Ccap0tlJLcTteQnbHO-18" style="edgeStyle=orthogonalEdgeStyle;rounded=0;orthogonalLoop=1;jettySize=auto;html=1;entryX=0;entryY=0.5;entryDx=0;entryDy=0;" parent="1" source="U2Ccap0tlJLcTteQnbHO-1" target="U2Ccap0tlJLcTteQnbHO-3" edge="1">
          <mxGeometry relative="1" as="geometry" />
        </mxCell>
        <mxCell id="U2Ccap0tlJLcTteQnbHO-1" value="Red" style="ellipse;whiteSpace=wrap;html=1;" parent="1" vertex="1">
          <mxGeometry x="90" y="250" width="120" height="80" as="geometry" />
        </mxCell>
        <mxCell id="U2Ccap0tlJLcTteQnbHO-34" style="edgeStyle=orthogonalEdgeStyle;rounded=0;orthogonalLoop=1;jettySize=auto;html=1;entryX=0.35;entryY=0.963;entryDx=0;entryDy=0;entryPerimeter=0;" parent="1" source="U2Ccap0tlJLcTteQnbHO-2" target="U2Ccap0tlJLcTteQnbHO-3" edge="1">
          <mxGeometry relative="1" as="geometry">
            <mxPoint x="300" y="400" as="targetPoint" />
            <Array as="points">
              <mxPoint x="340" y="770" />
              <mxPoint x="90" y="770" />
              <mxPoint x="90" y="370" />
              <mxPoint x="300" y="370" />
              <mxPoint x="300" y="327" />
            </Array>
          </mxGeometry>
        </mxCell>
        <mxCell id="U2Ccap0tlJLcTteQnbHO-2" value="PEDESTRIAN_CROSSING" style="ellipse;whiteSpace=wrap;html=1;" parent="1" vertex="1">
          <mxGeometry x="245" y="610" width="190" height="80" as="geometry" />
        </mxCell>
        <mxCell id="U2Ccap0tlJLcTteQnbHO-11" style="edgeStyle=orthogonalEdgeStyle;rounded=0;orthogonalLoop=1;jettySize=auto;html=1;exitX=1;exitY=0.5;exitDx=0;exitDy=0;" parent="1" source="U2Ccap0tlJLcTteQnbHO-3" target="U2Ccap0tlJLcTteQnbHO-4" edge="1">
          <mxGeometry relative="1" as="geometry" />
        </mxCell>
        <mxCell id="U2Ccap0tlJLcTteQnbHO-13" style="edgeStyle=orthogonalEdgeStyle;rounded=0;orthogonalLoop=1;jettySize=auto;html=1;entryX=0.5;entryY=0;entryDx=0;entryDy=0;" parent="1" source="U2Ccap0tlJLcTteQnbHO-3" target="U2Ccap0tlJLcTteQnbHO-6" edge="1">
          <mxGeometry relative="1" as="geometry">
            <Array as="points">
              <mxPoint x="320" y="420" />
              <mxPoint x="340" y="420" />
            </Array>
          </mxGeometry>
        </mxCell>
        <mxCell id="U2Ccap0tlJLcTteQnbHO-3" value="RedYellow" style="ellipse;whiteSpace=wrap;html=1;" parent="1" vertex="1">
          <mxGeometry x="260" y="250" width="120" height="80" as="geometry" />
        </mxCell>
        <mxCell id="U2Ccap0tlJLcTteQnbHO-12" style="edgeStyle=orthogonalEdgeStyle;rounded=0;orthogonalLoop=1;jettySize=auto;html=1;exitX=1;exitY=0.5;exitDx=0;exitDy=0;" parent="1" source="U2Ccap0tlJLcTteQnbHO-4" target="U2Ccap0tlJLcTteQnbHO-5" edge="1">
          <mxGeometry relative="1" as="geometry" />
        </mxCell>
        <mxCell id="U2Ccap0tlJLcTteQnbHO-14" style="edgeStyle=orthogonalEdgeStyle;rounded=0;orthogonalLoop=1;jettySize=auto;html=1;" parent="1" source="U2Ccap0tlJLcTteQnbHO-4" edge="1">
          <mxGeometry relative="1" as="geometry">
            <mxPoint x="340" y="510" as="targetPoint" />
            <Array as="points">
              <mxPoint x="480" y="420" />
              <mxPoint x="341" y="420" />
            </Array>
          </mxGeometry>
        </mxCell>
        <mxCell id="U2Ccap0tlJLcTteQnbHO-4" value="Green" style="ellipse;whiteSpace=wrap;html=1;" parent="1" vertex="1">
          <mxGeometry x="420" y="250" width="120" height="80" as="geometry" />
        </mxCell>
        <mxCell id="U2Ccap0tlJLcTteQnbHO-17" style="edgeStyle=orthogonalEdgeStyle;rounded=0;orthogonalLoop=1;jettySize=auto;html=1;" parent="1" source="U2Ccap0tlJLcTteQnbHO-5" target="U2Ccap0tlJLcTteQnbHO-1" edge="1">
          <mxGeometry relative="1" as="geometry">
            <mxPoint x="150" y="160" as="targetPoint" />
            <Array as="points">
              <mxPoint x="660" y="200" />
              <mxPoint x="661" y="200" />
              <mxPoint x="661" y="140" />
              <mxPoint x="150" y="140" />
            </Array>
          </mxGeometry>
        </mxCell>
        <mxCell id="U2Ccap0tlJLcTteQnbHO-5" value="Yellow" style="ellipse;whiteSpace=wrap;html=1;" parent="1" vertex="1">
          <mxGeometry x="600" y="250" width="120" height="80" as="geometry" />
        </mxCell>
        <mxCell id="U2Ccap0tlJLcTteQnbHO-25" style="edgeStyle=orthogonalEdgeStyle;rounded=0;orthogonalLoop=1;jettySize=auto;html=1;exitX=0.5;exitY=1;exitDx=0;exitDy=0;entryX=0.5;entryY=0;entryDx=0;entryDy=0;" parent="1" source="U2Ccap0tlJLcTteQnbHO-6" target="U2Ccap0tlJLcTteQnbHO-2" edge="1">
          <mxGeometry relative="1" as="geometry" />
        </mxCell>
        <mxCell id="U2Ccap0tlJLcTteQnbHO-6" value="YellowToRed" style="ellipse;whiteSpace=wrap;html=1;" parent="1" vertex="1">
          <mxGeometry x="280" y="500" width="120" height="80" as="geometry" />
        </mxCell>
        <mxCell id="U2Ccap0tlJLcTteQnbHO-8" style="edgeStyle=orthogonalEdgeStyle;rounded=0;orthogonalLoop=1;jettySize=auto;html=1;entryX=0;entryY=0.5;entryDx=0;entryDy=0;" parent="1" source="U2Ccap0tlJLcTteQnbHO-7" target="U2Ccap0tlJLcTteQnbHO-1" edge="1">
          <mxGeometry relative="1" as="geometry" />
        </mxCell>
        <mxCell id="U2Ccap0tlJLcTteQnbHO-7" value="" style="ellipse;html=1;shape=endState;fillColor=#000000;strokeColor=#ff0000;" parent="1" vertex="1">
          <mxGeometry x="20" y="275" width="30" height="30" as="geometry" />
        </mxCell>
        <mxCell id="U2Ccap0tlJLcTteQnbHO-15" style="edgeStyle=orthogonalEdgeStyle;rounded=0;orthogonalLoop=1;jettySize=auto;html=1;entryX=0.5;entryY=0;entryDx=0;entryDy=0;" parent="1" source="U2Ccap0tlJLcTteQnbHO-5" target="U2Ccap0tlJLcTteQnbHO-6" edge="1">
          <mxGeometry relative="1" as="geometry">
            <Array as="points">
              <mxPoint x="660" y="420" />
              <mxPoint x="340" y="420" />
            </Array>
          </mxGeometry>
        </mxCell>
        <mxCell id="U2Ccap0tlJLcTteQnbHO-19" value="time" style="text;html=1;align=center;verticalAlign=middle;whiteSpace=wrap;rounded=0;" parent="1" vertex="1">
          <mxGeometry x="200" y="260" width="60" height="30" as="geometry" />
        </mxCell>
        <mxCell id="U2Ccap0tlJLcTteQnbHO-21" value="time" style="text;whiteSpace=wrap;html=1;" parent="1" vertex="1">
          <mxGeometry x="380" y="265" width="60" height="40" as="geometry" />
        </mxCell>
        <mxCell id="U2Ccap0tlJLcTteQnbHO-22" value="time" style="text;whiteSpace=wrap;html=1;" parent="1" vertex="1">
          <mxGeometry x="540" y="265" width="60" height="40" as="geometry" />
        </mxCell>
        <mxCell id="U2Ccap0tlJLcTteQnbHO-23" value="Button" style="text;html=1;align=center;verticalAlign=middle;whiteSpace=wrap;rounded=0;" parent="1" vertex="1">
          <mxGeometry x="380" y="390" width="60" height="30" as="geometry" />
        </mxCell>
        <mxCell id="U2Ccap0tlJLcTteQnbHO-24" value="Button" style="text;html=1;align=center;verticalAlign=middle;resizable=0;points=[];autosize=1;strokeColor=none;fillColor=none;" parent="1" vertex="1">
          <mxGeometry x="170" y="600" width="60" height="30" as="geometry" />
        </mxCell>
        <mxCell id="U2Ccap0tlJLcTteQnbHO-29" value="Time" style="text;html=1;align=center;verticalAlign=middle;whiteSpace=wrap;rounded=0;" parent="1" vertex="1">
          <mxGeometry x="350" y="570" width="60" height="30" as="geometry" />
        </mxCell>
        <mxCell id="U2Ccap0tlJLcTteQnbHO-30" value="Time" style="text;html=1;align=center;verticalAlign=middle;whiteSpace=wrap;rounded=0;" parent="1" vertex="1">
          <mxGeometry x="260" y="730" width="60" height="30" as="geometry" />
        </mxCell>
        <mxCell id="U2Ccap0tlJLcTteQnbHO-31" value="Time" style="text;html=1;align=center;verticalAlign=middle;whiteSpace=wrap;rounded=0;" parent="1" vertex="1">
          <mxGeometry x="330" y="110" width="60" height="30" as="geometry" />
        </mxCell>
      </root>
    </mxGraphModel>
  </diagram>
</mxfile>
